<!DOCTYPE svg PUBLIC "-//W3C//DTD SVG 20010904//EN" "http://www.w3.org/TR/2001/REC-SVG-20010904/DTD/svg10.dtd">
<svg version="1.0" xmlns="http://www.w3.org/2000/svg" width="200px" height="200px" viewBox="0 0 2000 2000" preserveAspectRatio="xMidYMid meet"><g fill="#ffffff" stroke="none">
 <path d="M1882 1723 c-12 -2 -27 -13 -32 -24 -7 -12 -21 -19 -39 -19 -37 0 -52 -20 -59 -75 l-5 -45 -91 0 c-74 0 -97 4 -121 20 -16 11 -42 20 -56 20 -39 0 -91 -40 -107 -82 -13 -32 -12 -41 2 -70 17 -32 16 -35 -26 -146 -36 -96 -48 -116 -73 -129 -16 -9 -39 -24 -50 -34 -21 -18 -24 -18 -187 41 l-165 60 -104 -46 c-57 -25 -124 -55 -149 -66 -25 -12 -58 -27 -75 -34 -23 -9 -36 -27 -56 -76 l-26 -63 -206 0 c-129 0 -208 -4 -209 -10 -2 -5 42 -27 97 -47 173 -64 645 -238 770 -283 66 -24 194 -71 285 -105 91 -34 219 -81 285 -105 66 -24 169 -62 229 -85 60 -22 115 -39 122 -36 16 6 28 34 95 214 l49 133 -110 143 -110 142 -123 43 c-211 76 -217 79 -217 115 0 17 -6 41 -14 52 -13 19 -11 32 27 132 37 99 45 112 69 117 15 4 43 24 61 46 34 39 34 39 109 39 l75 0 6 -47 c5 -50 25 -73 63 -73 12 0 28 -10 36 -22 20 -30 113 -32 134 -3 19 26 20 363 2 387 -14 18 -69 29 -106 21z m-1262 -753 c0 -21 -24 -28 -35 -10 -8 14 3 30 21 30 8 0 14 -9 14 -20z"/>
 <path d="M443 1382 c-38 -106 -43 -111 -82 -101 -9 3 -27 -32 -56 -106 -43 -110 -44 -135 -8 -135 10 0 12 -6 8 -22 -4 -13 -8 -27 -9 -33 -1 -9 129 -28 149 -21 6 2 19 29 29 60 11 31 24 60 30 65 6 5 79 39 161 76 83 37 154 70 158 74 12 12 -11 26 -103 59 -47 17 -127 46 -178 65 -83 32 -94 34 -99 19z"/>
 <path d="M251 1346 c-6 -7 -22 -44 -36 -82 -15 -38 -37 -97 -51 -131 -13 -34 -24 -64 -24 -68 0 -3 16 -13 36 -21 31 -13 39 -13 50 -2 7 7 35 73 62 145 53 141 53 142 0 162 -19 7 -29 7 -37 -3z"/>
 </g>

<g fill="#03a9f4" stroke="none">
 <path d="M0 1000 l0 -1000 1000 0 1000 0 0 667 c0 519 -3 664 -12 655 -7 -7 -35 -12 -63 -12 -39 0 -56 5 -70 20 -10 11 -28 20 -40 20 -31 0 -43 18 -47 70 l-3 45 -91 3 -92 3 -20 -35 c-13 -22 -31 -38 -49 -42 -15 -3 -32 -7 -37 -8 -8 -2 -28 -49 -76 -184 -18 -49 -18 -57 -5 -82 8 -16 15 -40 15 -53 0 -14 6 -29 13 -35 13 -11 95 -43 237 -94 47 -16 91 -35 98 -40 7 -6 57 -68 111 -139 l99 -128 -63 -166 c-35 -92 -65 -168 -67 -171 -3 -2 -85 26 -184 62 -98 36 -226 83 -284 104 -58 21 -179 66 -270 100 -91 33 -219 81 -285 105 -66 24 -194 71 -285 105 -91 34 -228 84 -305 112 -77 28 -149 54 -160 59 -11 4 76 7 194 6 l214 -2 26 64 26 64 174 78 174 78 66 -26 c36 -13 112 -41 169 -61 l103 -37 17 22 c9 12 33 28 52 36 26 10 38 24 49 53 7 21 27 74 44 117 25 65 28 81 19 103 -22 47 -10 102 27 131 26 20 95 16 124 -7 23 -18 38 -20 124 -18 l98 3 3 50 c4 57 15 75 47 75 12 0 30 9 40 20 14 15 31 20 70 20 28 0 56 -5 63 -12 9 -9 12 23 12 145 l0 157 -1000 0 -1000 0 0 -1000z m628 318 c92 -33 170 -64 175 -68 4 -3 -62 -37 -145 -75 -84 -37 -159 -75 -166 -84 -7 -9 -21 -37 -30 -63 l-17 -48 -68 0 -69 0 7 27 c5 21 1 31 -16 43 l-21 17 37 101 c35 95 39 101 61 96 19 -5 27 0 43 27 11 18 23 46 26 61 4 15 9 28 11 28 2 0 80 -28 172 -62z m-327 11 c24 -12 22 -20 -72 -261 -10 -24 -13 -25 -40 -16 -16 5 -29 15 -29 21 -1 29 96 267 108 267 7 0 22 -5 33 -11z"/>
 <path d="M574 985 c-9 -23 3 -45 24 -45 29 0 48 26 32 45 -7 8 -21 15 -32 15 -10 0 -21 -7 -24 -15z"/>
 </g>

</svg>