<?xml version="1.0" standalone="no"?>
<!DOCTYPE svg PUBLIC "-//W3C//DTD SVG 20010904//EN"
 "http://www.w3.org/TR/2001/REC-SVG-20010904/DTD/svg10.dtd">
<svg version="1.0" xmlns="http://www.w3.org/2000/svg"
 width="250.000000pt" height="250.000000pt" viewBox="0 0 250.000000 250.000000"
 preserveAspectRatio="xMidYMid meet">
<metadata>
Created by potrace 1.15, written by Peter Selinger 2001-2017
</metadata>
<g transform="translate(0.000000,250.000000) scale(0.100000,-0.100000)"
fill="#ffffff" stroke="none">
<path d="M1055 1976 c-154 -38 -337 -169 -430 -309 -47 -71 -92 -197 -105
-298 -47 -350 186 -686 532 -769 256 -61 545 26 707 214 66 76 75 94 61 111
-14 17 -181 118 -239 144 l-43 18 -47 -47 c-68 -68 -125 -98 -213 -111 -131
-19 -220 12 -312 110 -73 80 -91 127 -91 246 0 96 1 103 36 165 116 210 398
252 568 84 30 -30 59 -54 65 -54 16 0 296 159 296 168 0 4 -24 36 -53 72 -97
119 -222 203 -371 249 -54 17 -92 21 -190 20 -66 0 -143 -6 -171 -13z"/>
</g>
</svg>
