<?xml version="1.0" standalone="no"?>
<!DOCTYPE svg PUBLIC "-//W3C//DTD SVG 20010904//EN"
 "http://www.w3.org/TR/2001/REC-SVG-20010904/DTD/svg10.dtd">
<svg version="1.0" xmlns="http://www.w3.org/2000/svg"
 width="200.000000pt" height="200.000000pt" viewBox="0 0 1785.000000 1785.000000"
 preserveAspectRatio="xMidYMid meet">
<metadata>
Created by potrace 1.15, written by Peter Selinger 2001-2017
</metadata>
<g transform="translate(0.000000,1785.000000) scale(0.100000,-0.100000)"
fill="#ffffff" stroke="none">
<path d="M8865 17164 c-408 -40 -688 -164 -958 -423 -256 -246 -398 -520 -457
-881 -15 -88 -18 -290 -7 -410 l8 -85 -2263 -972 c-1245 -535 -2270 -975
-2279 -978 -10 -4 -41 24 -101 93 -292 335 -695 515 -1148 515 -423 0 -765
-136 -1063 -422 -251 -241 -391 -505 -452 -852 -57 -322 -2 -673 150 -967 75
-143 152 -248 275 -372 243 -243 521 -383 867 -435 233 -34 462 -12 744 72 24
7 1374 -1883 1362 -1907 -4 -9 -311 -445 -682 -968 l-674 -951 -36 14 c-198
76 -496 104 -740 70 -458 -64 -861 -335 -1102 -740 -92 -155 -154 -327 -191
-535 -19 -111 -16 -391 6 -515 33 -180 117 -404 204 -539 187 -290 466 -517
767 -625 384 -137 773 -128 1144 25 204 85 424 247 567 417 l41 48 2294 -941
c1262 -518 2297 -945 2301 -948 3 -4 -1 -41 -10 -82 -10 -52 -15 -132 -16
-260 -1 -155 3 -204 22 -298 119 -592 546 -1045 1124 -1193 557 -142 1161 42
1530 465 226 258 346 545 379 898 l12 126 2345 2419 c1289 1330 2416 2492
2504 2582 l158 164 59 -32 c222 -118 572 -187 827 -162 361 35 656 162 906
388 298 270 460 601 500 1021 32 348 -78 744 -286 1023 -302 407 -738 628
-1238 629 -249 0 -473 -51 -686 -157 l-134 -66 -33 34 c-18 19 -1129 1174
-2468 2567 l-2434 2532 -6 133 c-3 72 -13 173 -22 222 -111 635 -613 1134
-1245 1239 -98 16 -295 27 -365 20z m3945 -4395 c1295 -1348 2368 -2465 2384
-2484 l29 -35 -76 -79 c-91 -95 -177 -210 -232 -309 -22 -39 -44 -70 -50 -68
-5 2 -1002 331 -2215 731 -1213 400 -2206 728 -2207 729 -1 1 -7 56 -13 122
-20 219 -65 385 -155 569 -72 149 -159 268 -290 400 -224 224 -467 355 -785
422 -133 28 -478 25 -620 -6 -331 -71 -587 -222 -828 -486 -180 -198 -296
-428 -351 -699 -11 -54 -21 -100 -23 -101 -2 -2 -353 79 -782 180 -428 101
-785 185 -792 187 -8 2 369 543 944 1354 526 742 974 1373 994 1402 l37 51
103 -102 c157 -156 315 -260 505 -335 498 -197 1049 -131 1482 176 152 108
326 301 426 471 50 86 130 273 141 329 3 17 9 32 13 31 3 0 1066 -1103 2361
-2450z m-5280 2319 c0 -6 20 -53 45 -105 l44 -94 -1054 -1488 -1055 -1489 -58
13 c-327 77 -2196 518 -2223 525 l-36 10 -6 107 c-11 194 -59 399 -127 549
l-27 61 2241 965 c1232 530 2244 963 2249 961 4 -2 7 -9 7 -15z m-3277 -3153
c594 -140 1082 -257 1084 -259 5 -5 -850 -1210 -859 -1211 -3 0 -346 274 -761
609 l-755 608 35 58 c48 81 117 255 143 361 12 49 24 89 27 89 3 0 491 -115
1086 -255z m2225 -525 c466 -110 856 -202 868 -205 19 -4 22 -14 28 -82 15
-170 72 -387 135 -511 l30 -59 -22 -20 c-55 -51 -1573 -1236 -1583 -1237 -6
-1 -287 221 -625 493 -338 272 -616 496 -617 497 -4 3 930 1324 935 1324 2 0
385 -90 851 -200z m-2668 -754 c278 -224 504 -414 504 -421 -2 -15 -586 -844
-595 -845 -3 0 -274 375 -602 833 -327 457 -614 857 -636 889 l-41 56 86 58
c48 32 130 99 182 150 l97 91 250 -202 c137 -111 477 -385 755 -609z m8784
-392 c1194 -394 2174 -719 2178 -723 4 -4 3 -22 -2 -41 -31 -107 -44 -223 -44
-390 0 -189 15 -304 59 -447 13 -43 21 -81 17 -84 -10 -10 -4304 -1470 -4308
-1466 -2 2 -11 44 -19 93 -61 353 -258 691 -537 917 -285 230 -599 340 -968
340 -341 0 -615 -85 -885 -272 -78 -54 -272 -238 -331 -313 l-29 -38 -775 626
c-426 343 -781 631 -788 638 -10 10 129 123 748 609 418 328 764 598 769 599
5 2 37 -28 71 -67 223 -253 500 -413 840 -487 149 -32 409 -36 568 -9 321 55
595 195 823 421 225 223 350 454 423 783 4 15 9 27 12 27 4 0 983 -322 2178
-716z m-7465 -672 c317 -255 577 -468 579 -472 2 -4 -257 -211 -574 -460 -433
-340 -579 -449 -585 -439 -4 8 -156 220 -337 473 l-329 459 325 458 c178 252
329 456 335 452 5 -3 269 -215 586 -471z m1623 -1308 c442 -356 809 -653 817
-660 11 -10 8 -27 -23 -106 -39 -100 -81 -251 -92 -334 -3 -28 -10 -57 -14
-64 -5 -8 -380 -100 -901 -220 l-893 -207 -17 21 c-69 90 -902 1262 -903 1272
-1 16 1196 955 1211 950 6 -3 373 -296 815 -652z m-2767 270 c143 -200 283
-397 312 -438 l52 -73 -776 -609 c-426 -335 -779 -611 -785 -612 -5 -2 -43 29
-86 70 -65 62 -197 167 -255 203 -13 8 85 153 626 917 353 499 644 907 647
907 3 0 122 -164 265 -365z m10966 -261 c48 -80 144 -197 227 -278 l86 -84
-40 -45 c-21 -25 -1105 -1145 -2409 -2490 -1787 -1842 -2372 -2440 -2377
-2427 -3 9 -20 61 -37 115 -123 392 -404 715 -786 902 -220 107 -405 148 -670
148 -263 0 -446 -40 -662 -143 -168 -82 -275 -156 -411 -285 -52 -49 -54 -50
-68 -31 -7 11 -459 641 -1002 1400 -544 759 -988 1381 -987 1382 3 4 1597 373
1611 373 7 0 14 -28 18 -71 22 -244 124 -513 273 -722 75 -105 246 -276 348
-349 379 -268 843 -353 1294 -238 249 63 474 188 664 369 243 231 395 514 452
838 8 49 15 102 15 118 0 17 4 36 9 44 8 12 4378 1508 4413 1510 9 1 27 -16
39 -36z m-9624 -1615 c25 -35 31 -49 21 -53 -7 -2 -501 -117 -1098 -255 -597
-138 -1092 -253 -1101 -256 -12 -3 -19 9 -29 53 -21 94 -68 221 -124 330 l-53
103 781 613 781 613 394 -551 c216 -302 409 -571 428 -597z m1264 -1766 l1057
-1477 -30 -50 c-16 -27 -43 -79 -59 -113 -20 -41 -35 -62 -43 -59 -42 16
-4512 1851 -4515 1853 -2 2 12 41 32 86 86 200 136 437 137 639 l0 56 183 42
c100 23 623 145 1162 271 539 125 989 228 1000 229 15 0 260 -336 1076 -1477z"/>
</g>
</svg>
