<?xml version="1.0" encoding="utf-8"?>
<!-- Generator: SketchAPI 4.1.465 <https://api.sketch.io/> -->
<svg version="1.1" xmlns="http://www.w3.org/2000/svg" xmlns:xlink="http://www.w3.org/1999/xlink" xmlns:sketchjs="https://sketch.io/dtd/" sketchjs:metadata="eyJ0aXRsZSI6IkRyYXdpbmciLCJkZXNjcmlwdGlvbiI6Im1hZGUgd2l0aCBTa2V0Y2hwYWQgLSBodHRwczovL3NrZXRjaC5pby9za2V0Y2hwYWQiLCJtZXRhZGF0YSI6e30sImNsaXAiOnsiZW5hYmxlZCI6dHJ1ZSwic3R5bGUiOnsic3Ryb2tlU3R5bGUiOiJibGFjayIsInNoYWRvd0NvbG9yIjoicmdiYSgyNTUsMjU1LDI1NSwwLjE1KSIsInNoYWRvd0JsdXIiOjEsImxpbmVXaWR0aCI6Mn19LCJleHBvcnREUEkiOjcyLCJleHBvcnRGb3JtYXQiOiJwbmciLCJleHBvcnRRdWFsaXR5IjowLjk1LCJ1bml0cyI6InB4Iiwid2lkdGgiOjQ3OSwiaGVpZ2h0Ijo0NDcsInNjYWxlIjoxLCJwYWdlcyI6eyJsZW5ndGgiOjEsImRhdGEiOlt7IndpZHRoIjo0NzksImhlaWdodCI6NDQ3fV19fQ==" sketchjs:version="4.1.465">
<g sketchjs:tool="rectangle" style="fill: none; mix-blend-mode: source-over; opacity: NaN;">
	<path id="0d7c253a_x2dfa8b_x2d473b_x2d9dbf_x2d7bfb7f9ed811" style="vector-effect: non-scaling-stroke;" d="M0 -16 L479 -16 479 463 0 463 z"/>
	<use xlink:href="#0d7c253a_x2dfa8b_x2d473b_x2d9dbf_x2d7bfb7f9ed811"/>
	<use xlink:href="#0d7c253a_x2dfa8b_x2d473b_x2d9dbf_x2d7bfb7f9ed811" style="fill: white; fill-opacity: 1;"/>
</g>
<g sketchjs:tool="pencil" style="fill: none; mix-blend-mode: source-over;" transform="matrix(1,0,0,1,13,-10)">
	<path id="bf7c547d_x2df9f7_x2d49ed_x2d8b39_x2dbec72801db09" style="vector-effect: non-scaling-stroke;" d="M0 0 L0 0 " stroke-linecap="round" stroke-width="2"/>
	<use xlink:href="#bf7c547d_x2df9f7_x2d49ed_x2d8b39_x2dbec72801db09" style="stroke: black; stroke-dasharray: none; stroke-dashoffset: 0; stroke-linecap: butt; stroke-linejoin: miter; stroke-miterlimit: 4; stroke-opacity: 1; stroke-width: 1;"/>
	<use xlink:href="#bf7c547d_x2df9f7_x2d49ed_x2d8b39_x2dbec72801db09"/>
</g>
<g sketchjs:tool="polyline" style="fill: none; mix-blend-mode: source-over;" transform="matrix(0.8904255888100384,0,0,0.9849840584181838,15,11)">
	<polyline id="5108337f_x2d7777_x2d4a13_x2dbf52_x2d5cf674f313a6" style="vector-effect: non-scaling-stroke;" points="0,5 498,0 503,414 21,432 0,5 0,5"/>
	<use xlink:href="#5108337f_x2d7777_x2d4a13_x2dbf52_x2d5cf674f313a6" style="stroke: black; stroke-dasharray: none; stroke-dashoffset: 0; stroke-linecap: butt; stroke-linejoin: miter; stroke-miterlimit: 4; stroke-opacity: 1; stroke-width: 1;"/>
	<use xlink:href="#5108337f_x2d7777_x2d4a13_x2dbf52_x2d5cf674f313a6"/>
</g>
<g sketchjs:tool="polyline" style="fill: none; mix-blend-mode: source-over;" transform="matrix(1,0,0,1,18,74)">
	<polyline id="3ddb7818_x2da75a_x2d42b7_x2dbf4f_x2d5a03d1e3f7f4" style="vector-effect: non-scaling-stroke;" points="0,2 496,0 496,0"/>
	<use xlink:href="#3ddb7818_x2da75a_x2d42b7_x2dbf4f_x2d5a03d1e3f7f4" style="stroke: black; stroke-dasharray: none; stroke-dashoffset: 0; stroke-linecap: butt; stroke-linejoin: miter; stroke-miterlimit: 4; stroke-opacity: 1; stroke-width: 1;"/>
	<use xlink:href="#3ddb7818_x2da75a_x2d42b7_x2dbf4f_x2d5a03d1e3f7f4"/>
</g>
<g sketchjs:tool="polyline" style="fill: none; mix-blend-mode: source-over;" transform="matrix(1,0,0,1,21,138)">
	<polyline id="a955ae38_x2d9193_x2d4b67_x2d9243_x2d4567d81f195b" style="vector-effect: non-scaling-stroke;" points="0,6 493,0 495,0"/>
	<use xlink:href="#a955ae38_x2d9193_x2d4b67_x2d9243_x2d4567d81f195b" style="stroke: black; stroke-dasharray: none; stroke-dashoffset: 0; stroke-linecap: butt; stroke-linejoin: miter; stroke-miterlimit: 4; stroke-opacity: 1; stroke-width: 1;"/>
	<use xlink:href="#a955ae38_x2d9193_x2d4b67_x2d9243_x2d4567d81f195b"/>
</g>
<g sketchjs:tool="polyline" style="fill: none; mix-blend-mode: source-over;" transform="matrix(0.8884381338742393,0,0,0.8884381338742393,25,215)">
	<polyline id="bdb89820_x2df17d_x2d436a_x2d814c_x2d5a68767d6534" style="vector-effect: non-scaling-stroke;" points="0,7 493,0 493,0"/>
	<use xlink:href="#bdb89820_x2df17d_x2d436a_x2d814c_x2d5a68767d6534" style="stroke: black; stroke-dasharray: none; stroke-dashoffset: 0; stroke-linecap: butt; stroke-linejoin: miter; stroke-miterlimit: 4; stroke-opacity: 1; stroke-width: 1;"/>
	<use xlink:href="#bdb89820_x2df17d_x2d436a_x2d814c_x2d5a68767d6534"/>
</g>
<g sketchjs:tool="polyline" style="fill: none; mix-blend-mode: source-over;" transform="matrix(0.8888888888888888,0,0,0.8888888888888888,28,283.33333333333326)">
	<polyline id="0760024c_x2d6df3_x2d4234_x2dbdcc_x2d45094b3e4ec4" style="vector-effect: non-scaling-stroke;" points="0,12 489,0 489,0"/>
	<use xlink:href="#0760024c_x2d6df3_x2d4234_x2dbdcc_x2d45094b3e4ec4" style="stroke: black; stroke-dasharray: none; stroke-dashoffset: 0; stroke-linecap: butt; stroke-linejoin: miter; stroke-miterlimit: 4; stroke-opacity: 1; stroke-width: 1;"/>
	<use xlink:href="#0760024c_x2d6df3_x2d4234_x2dbdcc_x2d45094b3e4ec4"/>
</g>
<g sketchjs:tool="polyline" style="fill: none; mix-blend-mode: source-over;" transform="matrix(0.8918367346938776,0,0,0.8918367346938776,33,351)">
	<polyline id="b5f7fa9c_x2d2ea2_x2d49e5_x2da8fc_x2dcda25c20967f" style="vector-effect: non-scaling-stroke;" points="0,12 484,0 484,0"/>
	<use xlink:href="#b5f7fa9c_x2d2ea2_x2d49e5_x2da8fc_x2dcda25c20967f" style="stroke: black; stroke-dasharray: none; stroke-dashoffset: 0; stroke-linecap: butt; stroke-linejoin: miter; stroke-miterlimit: 4; stroke-opacity: 1; stroke-width: 1;"/>
	<use xlink:href="#b5f7fa9c_x2d2ea2_x2d49e5_x2da8fc_x2dcda25c20967f"/>
</g>
<g sketchjs:tool="polyline" style="fill: none; mix-blend-mode: source-over;" transform="matrix(0.9882295081967213,0,0,0.9882295081967213,87.25895081967207,14.037770491803286)">
	<polyline id="87f8d7bb_x2dfb9e_x2d4cf4_x2d85e5_x2da44f38171717" style="vector-effect: non-scaling-stroke;" points="0,0 21,427 22,428"/>
	<use xlink:href="#87f8d7bb_x2dfb9e_x2d4cf4_x2d85e5_x2da44f38171717" style="stroke: black; stroke-dasharray: none; stroke-dashoffset: 0; stroke-linecap: butt; stroke-linejoin: miter; stroke-miterlimit: 4; stroke-opacity: 1; stroke-width: 1;"/>
	<use xlink:href="#87f8d7bb_x2dfb9e_x2d4cf4_x2d85e5_x2da44f38171717"/>
</g>
<g sketchjs:tool="polyline" style="fill: none; mix-blend-mode: source-over;" transform="matrix(0.9742248696947132,0,0,0.9742248696947132,159.38662695457938,16.980205510052016)">
	<polyline id="d95a27d3_x2db33d_x2d48ba_x2dae6a_x2db1f20c29f24c" style="vector-effect: non-scaling-stroke;" points="0,0 15,426 15,426"/>
	<use xlink:href="#d95a27d3_x2db33d_x2d48ba_x2dae6a_x2db1f20c29f24c" style="stroke: black; stroke-dasharray: none; stroke-dashoffset: 0; stroke-linecap: butt; stroke-linejoin: miter; stroke-miterlimit: 4; stroke-opacity: 1; stroke-width: 1;"/>
	<use xlink:href="#d95a27d3_x2db33d_x2d48ba_x2dae6a_x2db1f20c29f24c"/>
</g>
<g sketchjs:tool="polyline" style="fill: none; mix-blend-mode: source-over;" transform="matrix(0.9851453512907395,0,0,0.9851453512907395,231.22281973063883,12.268661755307804)">
	<polyline id="924db7ee_x2dde2c_x2d4c5e_x2db9f8_x2df1cf887a1303" style="vector-effect: non-scaling-stroke;" points="0,0 15,422"/>
	<use xlink:href="#924db7ee_x2dde2c_x2d4c5e_x2db9f8_x2df1cf887a1303" style="stroke: black; stroke-dasharray: none; stroke-dashoffset: 0; stroke-linecap: butt; stroke-linejoin: miter; stroke-miterlimit: 4; stroke-opacity: 1; stroke-width: 1;"/>
	<use xlink:href="#924db7ee_x2dde2c_x2d4c5e_x2db9f8_x2df1cf887a1303"/>
</g>
<g sketchjs:tool="polyline" style="fill: none; mix-blend-mode: source-over;" transform="matrix(0.9717058697361834,0,0,0.9717058697361834,302.5658826052762,15.053299492385719)">
	<polyline id="fdbbb65d_x2d2ec8_x2d44bb_x2dbc20_x2de5faad03e5d5" style="vector-effect: non-scaling-stroke;" points="0,0 20,424 19,426"/>
	<use xlink:href="#fdbbb65d_x2d2ec8_x2d44bb_x2dbc20_x2de5faad03e5d5" style="stroke: black; stroke-dasharray: none; stroke-dashoffset: 0; stroke-linecap: butt; stroke-linejoin: miter; stroke-miterlimit: 4; stroke-opacity: 1; stroke-width: 1;"/>
	<use xlink:href="#fdbbb65d_x2d2ec8_x2d44bb_x2dbc20_x2de5faad03e5d5"/>
</g>
<g sketchjs:tool="polyline" style="fill: none; mix-blend-mode: source-over;" transform="matrix(0.9829820522491407,0.034326489661117364,-0.034326489661117364,0.9829820522491407,378.9738924217177,11.595518980752914)">
	<polyline id="a7ac06da_x2d2487_x2d42e1_x2db1cd_x2d20f55fa00d8b" style="vector-effect: non-scaling-stroke;" points="0,0 25,421 25,421"/>
	<use xlink:href="#a7ac06da_x2d2487_x2d42e1_x2db1cd_x2d20f55fa00d8b" style="stroke: black; stroke-dasharray: none; stroke-dashoffset: 0; stroke-linecap: butt; stroke-linejoin: miter; stroke-miterlimit: 4; stroke-opacity: 1; stroke-width: 1;"/>
	<use xlink:href="#a7ac06da_x2d2487_x2d42e1_x2db1cd_x2d20f55fa00d8b"/>
</g>
<g sketchjs:tool="pencil" style="fill: none; mix-blend-mode: source-over;" transform="matrix(1,0,0,1,44,26)">
	<path id="537102ce_x2dc6a9_x2d4501_x2d97f7_x2d3a2f9a9bbbfc" style="vector-effect: non-scaling-stroke;" d="M0 0 0 0 C0 11.23 0 15.71 0 19 0 21.6 0 23.88 0 26 0 27.76 0 29.41 0 30.83 0 31.95 0 33.45 0 33.83 0 33.92 0 34 0 34 " stroke-linecap="round" stroke-width="2"/>
	<use xlink:href="#537102ce_x2dc6a9_x2d4501_x2d97f7_x2d3a2f9a9bbbfc" style="stroke: black; stroke-dasharray: none; stroke-dashoffset: 0; stroke-linecap: butt; stroke-linejoin: miter; stroke-miterlimit: 4; stroke-opacity: 1; stroke-width: 1;"/>
	<use xlink:href="#537102ce_x2dc6a9_x2d4501_x2d97f7_x2d3a2f9a9bbbfc" style="fill: #ffffff; fill-opacity: 1;"/>
</g>
<g sketchjs:tool="pencil" style="fill: none; mix-blend-mode: source-over;" transform="matrix(1,0,0,1,116,32)">
	<path id="5db67fe5_x2d30d8_x2d47e3_x2da850_x2db1b31eb9b151" style="vector-effect: non-scaling-stroke;" d="M0 4 0 4 C2.71 -1.34 9.32 -0.39 11.83 0 13.23 0.21 14.39 0.17 15 1 15.83 2.13 15 4.99 15 7.17 15 9.62 15 12.56 15 15 15 17.13 15.16 19.01 15 21 14.83 23.01 14.84 25.21 14 27 13.14 28.83 11.39 31.08 9.83 31.83 8.6 32.43 7.05 31.97 5.83 32 4.81 32.02 3.78 32.42 3 32 2.12 31.53 1.36 30.18 1 29 0.59 27.63 0.24 24.96 1 24.17 1.68 23.46 3.45 24.03 4.83 24 6.46 23.96 8.05 23.98 10.17 24 13.3 24.02 18.18 23.97 21.83 24.17 25.08 24.34 28.8 24.54 31 25 32.29 25.27 34 26 34 26 34 26 34 26 34 26 " stroke-linecap="round" stroke-width="2"/>
	<use xlink:href="#5db67fe5_x2d30d8_x2d47e3_x2da850_x2db1b31eb9b151" style="stroke: black; stroke-dasharray: none; stroke-dashoffset: 0; stroke-linecap: butt; stroke-linejoin: miter; stroke-miterlimit: 4; stroke-opacity: 1; stroke-width: 1;"/>
	<use xlink:href="#5db67fe5_x2d30d8_x2d47e3_x2da850_x2db1b31eb9b151" style="fill: #ffffff; fill-opacity: 1;"/>
</g>
<g sketchjs:tool="pencil" style="fill: none; mix-blend-mode: source-over;" transform="matrix(1,0,0,1,182,24)">
	<path id="a711b1bd_x2d46eb_x2d47d0_x2da865_x2dd43e5dce9c0f" style="vector-effect: non-scaling-stroke;" d="M0 2 0 2 C10.08 1.87 13.81 1.5 17.17 1.17 20.47 0.83 24.99 -0.35 27 0 27.95 0.17 28.91 0.44 29 1 29.17 2.07 25.13 4.68 23.33 6.67 21.52 8.68 19.85 11.03 18.17 13 16.64 14.78 15.1 16.45 13.67 18 12.39 19.37 11.13 20.98 10 21.83 9.23 22.42 8.33 23.22 7.83 23 7.26 22.75 6.96 20.85 7 19.83 7.04 18.86 7.32 17.48 8 17 8.69 16.51 9.95 17 11.17 17 12.82 17 15.14 16.82 17 17 18.74 17.17 20.83 17.04 22 18 23.18 18.97 23.5 21.18 24 22.83 24.49 24.46 24.83 26.14 25 27.83 25.17 29.53 25.24 31.53 25 33 24.81 34.15 24.8 35.42 24 36 22.89 36.8 20.15 36 18 36 15.49 36 12.41 35.81 9.83 36 7.49 36.17 4.78 36.88 3.17 37 2.25 37.07 1 37 1 37 1 37 1 37 1 37 " stroke-linecap="round" stroke-width="2"/>
	<use xlink:href="#a711b1bd_x2d46eb_x2d47d0_x2da865_x2dd43e5dce9c0f" style="stroke: black; stroke-dasharray: none; stroke-dashoffset: 0; stroke-linecap: butt; stroke-linejoin: miter; stroke-miterlimit: 4; stroke-opacity: 1; stroke-width: 1;"/>
	<use xlink:href="#a711b1bd_x2d46eb_x2d47d0_x2da865_x2dd43e5dce9c0f" style="fill: #ffffff; fill-opacity: 1;"/>
</g>
<g sketchjs:tool="pencil" style="fill: none; mix-blend-mode: source-over;" transform="matrix(1,0,0,1,409,24)">
	<path id="ea0d103c_x2d64d3_x2d497c_x2da1a3_x2d056f11c958e4" style="vector-effect: non-scaling-stroke;" d="M12 0 12 0 C5.86 5.26 4.91 7.05 4 8.67 3.15 10.17 2.5 11.63 1.83 13.17 1.16 14.73 0.37 15.99 0 18 -0.56 21.07 -0.52 26.8 0 30 0.36 32.22 0.67 33.91 1.83 35.5 3.17 37.32 5.62 39.25 8 40 10.56 40.81 14.73 40.66 16.83 39.83 18.29 39.26 19.54 38.16 20 37 20.45 35.87 20.59 33.85 19.67 33 18.02 31.48 10.58 32.96 7 33 4.37 33.03 1.02 32.37 0.17 33.17 -0.27 33.58 0 35 0 35 " stroke-linecap="round" stroke-width="2"/>
	<use xlink:href="#ea0d103c_x2d64d3_x2d497c_x2da1a3_x2d056f11c958e4" style="stroke: black; stroke-dasharray: none; stroke-dashoffset: 0; stroke-linecap: butt; stroke-linejoin: miter; stroke-miterlimit: 4; stroke-opacity: 1; stroke-width: 1;"/>
	<use xlink:href="#ea0d103c_x2d64d3_x2d497c_x2da1a3_x2d056f11c958e4" style="fill: #ffffff; fill-opacity: 1;"/>
</g>
<g sketchjs:tool="pencil" style="fill: none; mix-blend-mode: source-over;" transform="matrix(1,0,0,1,37,96)">
	<path id="42639394_x2d9bf4_x2d4fe2_x2db3f0_x2dbe7683696c02" style="vector-effect: non-scaling-stroke;" d="M0 0 0 0 C16.07 0.06 19.52 -1.04 20.83 0.33 22.23 1.79 21.75 6.62 20.83 9 20.01 11.13 17.43 12 16.17 14.17 14.61 16.83 13.52 21.12 12.83 24.17 12.28 26.63 12.11 29.21 12 31 11.93 32.15 12 33.46 12 33.83 12 33.92 12 34 12 34 " stroke-linecap="round" stroke-width="2"/>
	<use xlink:href="#42639394_x2d9bf4_x2d4fe2_x2db3f0_x2dbe7683696c02" style="stroke: black; stroke-dasharray: none; stroke-dashoffset: 0; stroke-linecap: butt; stroke-linejoin: miter; stroke-miterlimit: 4; stroke-opacity: 1; stroke-width: 1;"/>
	<use xlink:href="#42639394_x2d9bf4_x2d4fe2_x2db3f0_x2dbe7683696c02" style="fill: #ffffff; fill-opacity: 1;"/>
</g>
<g sketchjs:tool="pencil" style="fill: none; mix-blend-mode: source-over;" transform="matrix(1,0,0,1,41,117)">
	<path id="53858be8_x2d6dec_x2d4a8d_x2dabac_x2def81318365df" style="vector-effect: non-scaling-stroke;" d="M0 0 0 0 C14.94 0 17.99 0 19.17 0 19.58 0 20 0 20 0 " stroke-linecap="round" stroke-width="2"/>
	<use xlink:href="#53858be8_x2d6dec_x2d4a8d_x2dabac_x2def81318365df" style="stroke: black; stroke-dasharray: none; stroke-dashoffset: 0; stroke-linecap: butt; stroke-linejoin: miter; stroke-miterlimit: 4; stroke-opacity: 1; stroke-width: 1;"/>
	<use xlink:href="#53858be8_x2d6dec_x2d4a8d_x2dabac_x2def81318365df" style="fill: #ffffff; fill-opacity: 1;"/>
</g>
<g sketchjs:tool="pencil" style="fill: none; mix-blend-mode: source-over;" transform="matrix(1,0,0,1,120,81)">
	<path id="0179e2b0_x2d45ad_x2d45ed_x2da9c6_x2d4f91c924e1a3" style="vector-effect: non-scaling-stroke;" d="M12 17 12 17 C5.22 24.32 4.88 26 4.17 27.83 3.38 29.87 2.36 32.2 1.83 34.33 1.34 36.31 0.5 38.66 1 40.17 1.41 41.41 2.34 42.26 3.83 43 6.74 44.44 15.13 44.75 18.83 45 21 45.14 23.37 45.68 24 45 24.41 44.56 24.29 43.68 23.83 42.83 22.64 40.62 15.21 37.14 12 33.67 9.04 30.46 7.04 25.05 5 23 3.92 21.91 2.78 22.11 2 21 0.81 19.31 0.3 15.34 0 12.83 -0.25 10.74 -0.06 8.88 0 7 0.06 5.22 -0.57 3 0.33 1.83 1.31 0.58 4.42 0.25 6 0 7.09 -0.17 8.07 -0.53 8.83 0 9.96 0.78 10.48 3.7 11 5.83 11.59 8.26 11.64 11.36 12 13.83 12.31 15.98 12.69 17.63 13 19.83 13.37 22.53 13.86 26.37 14 28.83 14.09 30.54 13.78 31.89 14 33.17 14.18 34.23 15 36 15 36 15 36 15 36 15 36 " stroke-linecap="round" stroke-width="2"/>
	<use xlink:href="#0179e2b0_x2d45ad_x2d45ed_x2da9c6_x2d4f91c924e1a3" style="stroke: black; stroke-dasharray: none; stroke-dashoffset: 0; stroke-linecap: butt; stroke-linejoin: miter; stroke-miterlimit: 4; stroke-opacity: 1; stroke-width: 1;"/>
	<use xlink:href="#0179e2b0_x2d45ad_x2d45ed_x2da9c6_x2d4f91c924e1a3" style="fill: #ffffff; fill-opacity: 1;"/>
</g>
<g sketchjs:tool="pencil" style="fill: none; mix-blend-mode: source-over;" transform="matrix(1,0,0,1,325,369)">
	<path id="73a55b65_x2d046f_x2d4edd_x2db664_x2d967a57ca3693" style="vector-effect: non-scaling-stroke;" d="M0 0 0 0 C12.95 0.06 17.11 -0.84 18 0.33 18.71 1.27 17.74 3.69 16.83 5.17 15.72 6.98 12.84 9.05 11.17 10 10.08 10.62 9.12 10.85 8.17 11 7.35 11.13 6.6 10.75 5.83 11 4.92 11.3 3.83 12.28 3.17 13 2.63 13.58 1.79 14.44 2 14.83 2.35 15.49 5.87 14.97 8 15 10.44 15.03 13.34 14.36 15.83 15 18.41 15.66 21.27 17.25 23.17 19 24.9 20.6 26.36 22.68 27 24.83 27.65 27.01 27.35 30.15 27 32 26.77 33.24 26.78 34.29 25.83 35 24.1 36.31 18.63 35.83 15 36 11.35 36.17 6.76 36 4 36 2.34 36 0 36 0 36 0 36 0 36 0 36 " stroke-linecap="round" stroke-width="2"/>
	<use xlink:href="#73a55b65_x2d046f_x2d4edd_x2db664_x2d967a57ca3693" style="stroke: black; stroke-dasharray: none; stroke-dashoffset: 0; stroke-linecap: butt; stroke-linejoin: miter; stroke-miterlimit: 4; stroke-opacity: 1; stroke-width: 1;"/>
	<use xlink:href="#73a55b65_x2d046f_x2d4edd_x2db664_x2d967a57ca3693" style="fill: #ffffff; fill-opacity: 1;"/>
</g>
<g sketchjs:tool="pencil" style="fill: none; mix-blend-mode: source-over;" transform="matrix(1,0,0,1,355,368)">
	<path id="92634f19_x2d87b7_x2d4f70_x2dad4b_x2d99aeee004319" style="vector-effect: non-scaling-stroke;" d="M1 0 1 0 C1 9.47 0.01 13.01 1 14 1.76 14.76 3.35 14.21 5 14 7.78 13.65 12.7 11.62 16 11.17 18.62 10.8 21.88 9.92 23.17 11 24.3 11.95 24.21 14.8 24 16.5 23.8 18.06 23.45 19.61 22.17 20.83 20.11 22.79 14.29 24.15 10.83 25 8.07 25.68 5.17 25.87 3.17 26 1.88 26.08 0 26 0 26 " stroke-linecap="round" stroke-width="2"/>
	<use xlink:href="#92634f19_x2d87b7_x2d4f70_x2dad4b_x2d99aeee004319" style="stroke: black; stroke-dasharray: none; stroke-dashoffset: 0; stroke-linecap: butt; stroke-linejoin: miter; stroke-miterlimit: 4; stroke-opacity: 1; stroke-width: 1;"/>
	<use xlink:href="#92634f19_x2d87b7_x2d4f70_x2dad4b_x2d99aeee004319" style="fill: #ffffff; fill-opacity: 1;"/>
</g>
<g sketchjs:tool="pencil" style="fill: none; mix-blend-mode: source-over;" transform="matrix(1,0,0,1,356,368)">
	<path id="77fba1d5_x2de03b_x2d43f2_x2da4b9_x2d3fa911376526" style="vector-effect: non-scaling-stroke;" d="M0 3 0 3 C11.65 0.45 19 0 19 0 " stroke-linecap="round" stroke-width="2"/>
	<use xlink:href="#77fba1d5_x2de03b_x2d43f2_x2da4b9_x2d3fa911376526" style="stroke: black; stroke-dasharray: none; stroke-dashoffset: 0; stroke-linecap: butt; stroke-linejoin: miter; stroke-miterlimit: 4; stroke-opacity: 1; stroke-width: 1;"/>
	<use xlink:href="#77fba1d5_x2de03b_x2d43f2_x2da4b9_x2d3fa911376526" style="fill: #ffffff; fill-opacity: 1;"/>
</g>
<g sketchjs:tool="pencil" style="fill: none; mix-blend-mode: source-over;" transform="matrix(1,0,0,1,392,366)">
	<path id="af3167c4_x2d427d_x2d4921_x2d88cb_x2d85e544046f1d" style="vector-effect: non-scaling-stroke;" d="M2 0 2 0 C12.4 0.21 13.46 0.24 14 1 14.7 1.99 14.06 4.46 14 6.17 13.94 7.85 14.43 9.66 13.67 11.17 12.74 13.01 7.83 15.54 8 16 8.07 16.18 8.63 15.95 9.17 16 10.35 16.1 13.69 15.87 14.83 17 16.03 18.18 15.8 21.05 16 23.17 16.21 25.38 16.08 28.03 16 30 15.94 31.51 16.46 33.27 15.67 34 14.71 34.88 11.36 34.52 9.83 34 8.64 33.59 7.92 32.35 7 31.83 6.26 31.42 5.67 31.15 4.83 31 3.79 30.81 2.05 31 1.17 31 0.67 31 0 31 0 31 " stroke-linecap="round" stroke-width="2"/>
	<use xlink:href="#af3167c4_x2d427d_x2d4921_x2d88cb_x2d85e544046f1d" style="stroke: black; stroke-dasharray: none; stroke-dashoffset: 0; stroke-linecap: butt; stroke-linejoin: miter; stroke-miterlimit: 4; stroke-opacity: 1; stroke-width: 1;"/>
	<use xlink:href="#af3167c4_x2d427d_x2d4921_x2d88cb_x2d85e544046f1d" style="fill: #ffffff; fill-opacity: 1;"/>
</g>
<g sketchjs:tool="pencil" style="fill: none; mix-blend-mode: source-over;" transform="matrix(1,0,0,1,418,362)">
	<path id="a11177a3_x2d2b74_x2d46cb_x2d9178_x2dc4a1981912f4" style="vector-effect: non-scaling-stroke;" d="M23 0 23 0 C11.18 7.19 7.9 10.84 6 13.83 4.48 16.23 3.51 18.44 3 21 2.46 23.7 2.62 27.67 3 29.67 3.21 30.78 3.2 31.57 4 32.17 5.47 33.26 10.23 32.87 13.17 33 15.88 33.12 19.02 33.32 21 33 22.26 32.8 23.52 32.73 24 32 24.53 31.2 24.57 29.07 23.67 28.17 21.97 26.47 13.96 27.16 10.17 27 7.41 26.88 4.88 27 3 27 1.79 27 0 27 0 27 " stroke-linecap="round" stroke-width="2"/>
	<use xlink:href="#a11177a3_x2d2b74_x2d46cb_x2d9178_x2dc4a1981912f4" style="stroke: black; stroke-dasharray: none; stroke-dashoffset: 0; stroke-linecap: butt; stroke-linejoin: miter; stroke-miterlimit: 4; stroke-opacity: 1; stroke-width: 1;"/>
	<use xlink:href="#a11177a3_x2d2b74_x2d46cb_x2d9178_x2dc4a1981912f4" style="fill: #ffffff; fill-opacity: 1;"/>
</g>
<g sketchjs:tool="pencil" style="fill: none; mix-blend-mode: source-over;" transform="matrix(1,0,0,1,246,54)">
	<path id="2402d617_x2d18fa_x2d43f7_x2d9aff_x2d824d575726b1" style="vector-effect: non-scaling-stroke;" d="M0 0 L0 0 " stroke-linecap="round" stroke-width="2"/>
	<use xlink:href="#2402d617_x2d18fa_x2d43f7_x2d9aff_x2d824d575726b1" style="stroke: black; stroke-dasharray: none; stroke-dashoffset: 0; stroke-linecap: butt; stroke-linejoin: miter; stroke-miterlimit: 4; stroke-opacity: 1; stroke-width: 1;"/>
	<use xlink:href="#2402d617_x2d18fa_x2d43f7_x2d9aff_x2d824d575726b1" style="fill: #ffffff; fill-opacity: 1;"/>
</g>
<g sketchjs:tool="pencil" style="fill: none; mix-blend-mode: source-over;" transform="matrix(1,0,0,1,270,55)">
	<path id="7576cf8a_x2d5ddd_x2d4522_x2d8e54_x2d81c733574974" style="vector-effect: non-scaling-stroke;" d="M0 0 L0 1 " stroke-linecap="round" stroke-width="2"/>
	<use xlink:href="#7576cf8a_x2d5ddd_x2d4522_x2d8e54_x2d81c733574974" style="stroke: black; stroke-dasharray: none; stroke-dashoffset: 0; stroke-linecap: butt; stroke-linejoin: miter; stroke-miterlimit: 4; stroke-opacity: 1; stroke-width: 1;"/>
	<use xlink:href="#7576cf8a_x2d5ddd_x2d4522_x2d8e54_x2d81c733574974" style="fill: #ffffff; fill-opacity: 1;"/>
</g>
<g sketchjs:tool="pencil" style="fill: none; mix-blend-mode: source-over;" transform="matrix(1,0,0,1,332,56)">
	<path id="c99043cd_x2d50b3_x2d42ce_x2d9f60_x2d0cb4303f968d" style="vector-effect: non-scaling-stroke;" d="M0 0 L0 0 " stroke-linecap="round" stroke-width="2"/>
	<use xlink:href="#c99043cd_x2d50b3_x2d42ce_x2d9f60_x2d0cb4303f968d" style="stroke: black; stroke-dasharray: none; stroke-dashoffset: 0; stroke-linecap: butt; stroke-linejoin: miter; stroke-miterlimit: 4; stroke-opacity: 1; stroke-width: 1;"/>
	<use xlink:href="#c99043cd_x2d50b3_x2d42ce_x2d9f60_x2d0cb4303f968d" style="fill: #ffffff; fill-opacity: 1;"/>
</g>
<g sketchjs:tool="pencil" style="fill: none; mix-blend-mode: source-over;" transform="matrix(1,0,0,1,197,187)">
	<path id="a19dc9ec_x2d3170_x2d41a0_x2db3f7_x2dd2ce216e4e8a" style="vector-effect: non-scaling-stroke;" d="M0 0 L0 0 " stroke-linecap="round" stroke-width="2"/>
	<use xlink:href="#a19dc9ec_x2d3170_x2d41a0_x2db3f7_x2dd2ce216e4e8a" style="stroke: black; stroke-dasharray: none; stroke-dashoffset: 0; stroke-linecap: butt; stroke-linejoin: miter; stroke-miterlimit: 4; stroke-opacity: 1; stroke-width: 1;"/>
	<use xlink:href="#a19dc9ec_x2d3170_x2d41a0_x2db3f7_x2dd2ce216e4e8a" style="fill: #ffffff; fill-opacity: 1;"/>
</g>
<g sketchjs:tool="pencil" style="fill: none; mix-blend-mode: source-over;" transform="matrix(1,0,0,1,265,256)">
	<path id="f0172cf9_x2de0d5_x2d431c_x2da267_x2def65edf4d3b1" style="vector-effect: non-scaling-stroke;" d="M0 0 L0 0 " stroke-linecap="round" stroke-width="2"/>
	<use xlink:href="#f0172cf9_x2de0d5_x2d431c_x2da267_x2def65edf4d3b1" style="stroke: black; stroke-dasharray: none; stroke-dashoffset: 0; stroke-linecap: butt; stroke-linejoin: miter; stroke-miterlimit: 4; stroke-opacity: 1; stroke-width: 1;"/>
	<use xlink:href="#f0172cf9_x2de0d5_x2d431c_x2da267_x2def65edf4d3b1" style="fill: #ffffff; fill-opacity: 1;"/>
</g>
<g sketchjs:tool="pencil" style="fill: none; mix-blend-mode: source-over;" transform="matrix(1,0,0,1,349,328)">
	<path id="cac0807b_x2d6100_x2d4c95_x2db0a5_x2d87bf4ddf0017" style="vector-effect: non-scaling-stroke;" d="M0 0 L0 0 " stroke-linecap="round" stroke-width="2"/>
	<use xlink:href="#cac0807b_x2d6100_x2d4c95_x2db0a5_x2d87bf4ddf0017" style="stroke: black; stroke-dasharray: none; stroke-dashoffset: 0; stroke-linecap: butt; stroke-linejoin: miter; stroke-miterlimit: 4; stroke-opacity: 1; stroke-width: 1;"/>
	<use xlink:href="#cac0807b_x2d6100_x2d4c95_x2db0a5_x2d87bf4ddf0017" style="fill: #ffffff; fill-opacity: 1;"/>
</g>
<g sketchjs:tool="pencil" style="fill: none; mix-blend-mode: source-over;" transform="matrix(1,0,0,1,264,406)">
	<path id="4ea6bd43_x2d94af_x2d40b9_x2d88ec_x2df66dc88f6f99" style="vector-effect: non-scaling-stroke;" d="M0 0 L0 0 " stroke-linecap="round" stroke-width="2"/>
	<use xlink:href="#4ea6bd43_x2d94af_x2d40b9_x2d88ec_x2df66dc88f6f99" style="stroke: black; stroke-dasharray: none; stroke-dashoffset: 0; stroke-linecap: butt; stroke-linejoin: miter; stroke-miterlimit: 4; stroke-opacity: 1; stroke-width: 1;"/>
	<use xlink:href="#4ea6bd43_x2d94af_x2d40b9_x2d88ec_x2df66dc88f6f99" style="fill: #ffffff; fill-opacity: 1;"/>
</g>
<g sketchjs:tool="pencil" style="fill: none; mix-blend-mode: source-over;" transform="matrix(1,0,0,1,283,406)">
	<path id="2f7a3053_x2da351_x2d484e_x2d90fb_x2d4ae298aecd05" style="vector-effect: non-scaling-stroke;" d="M0 0 L0 0 " stroke-linecap="round" stroke-width="2"/>
	<use xlink:href="#2f7a3053_x2da351_x2d484e_x2d90fb_x2d4ae298aecd05" style="stroke: black; stroke-dasharray: none; stroke-dashoffset: 0; stroke-linecap: butt; stroke-linejoin: miter; stroke-miterlimit: 4; stroke-opacity: 1; stroke-width: 1;"/>
	<use xlink:href="#2f7a3053_x2da351_x2d484e_x2d90fb_x2d4ae298aecd05" style="fill: #ffffff; fill-opacity: 1;"/>
</g>
<g sketchjs:tool="pencil" style="fill: none; mix-blend-mode: source-over;" transform="matrix(1,0,0,1,303,410)">
	<path id="362bf29f_x2d662c_x2d44c3_x2d8194_x2d2f510e77f404" style="vector-effect: non-scaling-stroke;" d="M0 0 L0 0 " stroke-linecap="round" stroke-width="2"/>
	<use xlink:href="#362bf29f_x2d662c_x2d44c3_x2d8194_x2d2f510e77f404" style="stroke: black; stroke-dasharray: none; stroke-dashoffset: 0; stroke-linecap: butt; stroke-linejoin: miter; stroke-miterlimit: 4; stroke-opacity: 1; stroke-width: 1;"/>
	<use xlink:href="#362bf29f_x2d662c_x2d44c3_x2d8194_x2d2f510e77f404" style="fill: #ffffff; fill-opacity: 1;"/>
</g>
<g sketchjs:tool="pencil" style="fill: none; mix-blend-mode: source-over;" transform="matrix(1,0,0,1,632,332)">
	<path id="c4a44bd3_x2df0c4_x2d400d_x2d89f8_x2d13b1956b724c" style="vector-effect: non-scaling-stroke;" d="M0 0 L0 0 " stroke-linecap="round" stroke-width="2"/>
	<use xlink:href="#c4a44bd3_x2df0c4_x2d400d_x2d89f8_x2d13b1956b724c" style="stroke: black; stroke-dasharray: none; stroke-dashoffset: 0; stroke-linecap: butt; stroke-linejoin: miter; stroke-miterlimit: 4; stroke-opacity: 1; stroke-width: 1;"/>
	<use xlink:href="#c4a44bd3_x2df0c4_x2d400d_x2d89f8_x2d13b1956b724c" style="fill: #ffffff; fill-opacity: 1;"/>
</g>
</svg>