<!DOCTYPE svg PUBLIC "-//W3C//DTD SVG 20010904//EN" "http://www.w3.org/TR/2001/REC-SVG-20010904/DTD/svg10.dtd">
<svg version="1.0" xmlns="http://www.w3.org/2000/svg" width="200px" height="200px" viewBox="0 0 2000 2000" preserveAspectRatio="xMidYMid meet"><g fill="#feffff" stroke="none">
 <path d="M916 1751 c-11 -21 -12 -31 -3 -40 14 -14 173 -15 182 -1 3 5 -1 23 -10 40 -15 29 -18 30 -85 30 -66 0 -70 -1 -84 -29z"/>
 <path d="M833 1654 c-3 -9 -2 -24 4 -33 16 -25 298 -29 324 -5 14 13 16 21 8 35 -9 17 -24 19 -170 19 -139 0 -160 -2 -166 -16z"/>
 <path d="M812 1558 c-7 -7 -12 -19 -12 -28 0 -36 20 -40 200 -40 164 0 178 1 195 20 17 19 17 21 0 40 -17 19 -31 20 -195 20 -123 0 -180 -4 -188 -12z"/>
 <path d="M787 1448 c-8 -13 -20 -40 -27 -61 -15 -48 6 -117 52 -164 28 -29 36 -32 69 -27 20 4 39 2 43 -4 11 -18 -6 -42 -30 -42 -26 0 -44 -26 -44 -64 0 -19 -5 -26 -20 -26 -17 0 -20 7 -20 48 0 39 -5 53 -26 73 -14 13 -37 45 -50 72 -13 26 -26 47 -29 47 -14 0 -89 -79 -105 -111 l-19 -36 74 -37 c91 -45 177 -141 161 -182 -10 -25 -30 -14 -61 34 -36 56 -126 121 -174 124 -33 3 -36 0 -65 -55 -25 -49 -30 -70 -30 -136 -1 -49 -6 -84 -15 -94 -25 -31 -8 -40 79 -42 50 -2 100 -9 121 -18 36 -16 36 -16 65 14 28 29 28 31 10 44 -10 8 -45 17 -77 21 -48 5 -59 10 -59 25 0 30 42 33 117 10 74 -22 137 -67 194 -138 18 -23 37 -39 41 -35 5 5 7 181 6 393 l-3 384 -82 3 c-76 3 -83 1 -96 -20z"/>
 <path d="M1037 1464 c-10 -10 -9 -772 2 -778 4 -3 23 15 41 40 58 81 162 142 249 147 40 2 46 -1 49 -19 3 -19 -3 -22 -51 -28 -30 -4 -63 -13 -73 -20 -17 -13 -16 -16 15 -51 30 -35 37 -38 90 -39 63 -2 141 -39 162 -77 18 -34 33 -6 32 55 -1 31 -11 75 -23 103 -14 32 -22 72 -24 123 -2 76 -25 140 -60 169 -36 30 -159 -46 -213 -131 -25 -41 -53 -50 -53 -18 0 54 89 148 177 186 29 13 53 28 53 34 0 31 -94 140 -120 140 -5 0 -19 -21 -30 -47 -12 -27 -33 -61 -48 -76 -20 -22 -27 -38 -27 -70 0 -32 -4 -42 -17 -45 -14 -3 -18 3 -18 26 0 31 -23 58 -55 64 -12 2 -21 13 -23 27 -4 23 -1 24 37 18 31 -4 47 0 66 15 64 50 84 157 42 219 -22 33 -25 34 -98 37 -41 1 -78 0 -82 -4z"/>
 <path d="M777 733 l-26 -28 37 -31 c52 -44 91 -121 107 -212 16 -86 12 -109 -36 -207 -16 -32 -25 -63 -21 -67 10 -10 115 -37 125 -31 4 2 7 94 7 204 l0 200 -43 67 c-42 65 -101 132 -116 132 -4 0 -19 -12 -34 -27z"/>
 <path d="M1149 733 c-40 -44 -85 -105 -103 -140 -14 -28 -16 -62 -14 -230 3 -197 3 -198 26 -201 31 -5 111 23 145 51 48 38 50 147 3 168 -18 8 -30 7 -54 -5 -42 -21 -62 -20 -62 4 0 24 47 50 89 50 70 0 105 -42 107 -130 0 -25 2 -49 2 -53 3 -15 62 34 78 65 9 17 29 41 44 54 15 13 40 49 55 81 16 32 34 69 41 83 17 35 -3 69 -63 109 -35 23 -57 31 -81 29 -34 -3 -34 -3 -36 -58 -2 -45 2 -60 21 -83 43 -53 14 -92 -30 -41 -22 26 -26 27 -55 15 -58 -24 -74 16 -17 43 63 30 56 106 -18 184 -38 39 -46 40 -78 5z"/>
 <path d="M523 698 c-6 -7 -13 -21 -16 -30 -8 -22 -50 -24 -67 -3 -18 22 -63 -10 -56 -40 7 -28 -22 -56 -50 -49 -29 8 -60 -38 -39 -56 8 -7 15 -25 15 -41 0 -21 -5 -28 -22 -31 -35 -5 -37 -54 -4 -70 29 -12 34 -45 14 -78 -10 -15 -9 -22 6 -38 10 -12 25 -18 37 -15 26 7 52 -16 45 -41 -5 -20 18 -56 37 -56 6 0 18 7 27 15 21 19 58 8 62 -19 5 -33 54 -35 69 -2 16 34 45 42 69 21 18 -17 21 -17 45 -1 19 12 24 22 19 40 -7 28 17 50 45 41 14 -4 24 1 37 20 15 23 15 27 1 43 -21 23 -12 57 20 71 32 15 30 64 -3 69 -29 4 -38 41 -17 64 13 15 14 23 4 44 -10 22 -16 25 -40 21 -36 -7 -56 13 -47 47 4 18 0 28 -18 40 -21 13 -26 13 -36 1 -20 -24 -54 -18 -78 15 -24 32 -44 38 -59 18z m70 -260 c16 -24 0 -67 -27 -74 -36 -9 -66 12 -66 46 0 53 65 73 93 28z"/>
 </g>

<g fill="#03a9f4" stroke="none">
 <path d="M0 1000 l0 -1000 1000 0 1000 0 0 1000 0 1000 -1000 0 -1000 0 0 -1000z m1076 753 c28 -37 18 -43 -71 -43 -75 0 -85 2 -85 18 0 31 22 42 83 42 45 0 63 -4 73 -17z m84 -118 l0 -25 -154 0 c-155 0 -174 4 -162 35 4 12 34 15 161 15 l155 0 0 -25z m28 -99 c2 -10 -2 -22 -10 -27 -15 -10 -328 -12 -352 -3 -16 6 -22 35 -9 48 4 3 88 5 187 4 168 -3 181 -4 184 -22z m-228 -463 l0 -388 -32 40 c-90 110 -172 158 -264 153 -55 -3 -59 -5 -59 -28 0 -21 5 -25 30 -28 40 -3 115 -23 115 -30 0 -3 -9 -16 -21 -28 -20 -21 -22 -22 -57 -6 -23 10 -68 16 -119 16 -78 1 -82 2 -77 21 4 11 10 25 15 31 5 6 8 35 7 65 -1 68 8 114 35 162 19 34 24 37 52 31 54 -12 133 -71 166 -124 32 -52 48 -60 69 -35 10 12 10 21 -1 46 -19 48 -107 131 -166 159 -29 14 -53 30 -53 36 0 16 55 89 82 108 22 16 23 15 41 -21 11 -21 32 -51 48 -68 21 -23 29 -41 31 -80 3 -46 5 -50 28 -50 22 0 26 5 30 40 4 35 9 41 34 45 69 12 54 73 -17 68 -35 -3 -43 1 -70 34 -39 48 -48 126 -22 182 l17 36 79 0 79 0 0 -387z m254 344 c20 -53 20 -87 1 -135 -27 -62 -54 -84 -96 -77 -26 5 -39 2 -49 -10 -17 -21 -2 -49 29 -53 22 -4 46 -36 37 -51 -3 -4 1 -17 9 -27 22 -30 50 -7 51 44 0 28 9 50 28 72 15 18 36 50 47 72 l20 39 29 -21 c26 -18 80 -95 80 -113 0 -3 -15 -11 -34 -17 -76 -25 -196 -146 -196 -197 0 -36 29 -41 54 -9 80 103 129 141 192 148 26 3 32 -2 57 -51 22 -44 27 -68 27 -123 0 -45 6 -80 17 -101 9 -18 18 -66 21 -107 l5 -74 -34 33 c-45 46 -110 73 -164 70 -37 -3 -46 1 -69 28 -14 17 -26 33 -26 36 0 9 70 27 101 27 15 0 32 7 39 15 22 27 -5 45 -67 45 -73 0 -139 -35 -219 -117 l-64 -66 0 382 0 381 79 0 78 0 17 -43z m-390 -673 c19 -7 87 -97 115 -151 19 -39 21 -58 21 -233 0 -165 -2 -190 -16 -190 -21 0 -104 21 -104 27 0 2 11 21 25 41 14 20 25 43 25 52 1 8 7 32 15 53 30 85 -16 236 -97 320 l-44 46 20 21 c23 23 20 22 40 14z m406 -31 c52 -64 60 -146 14 -157 -34 -9 -51 -44 -31 -64 14 -13 20 -13 48 -2 30 13 33 12 55 -16 20 -24 27 -27 41 -18 26 16 27 37 1 69 -16 21 -22 42 -22 81 -1 51 1 54 23 54 39 0 108 -39 130 -73 17 -27 18 -34 6 -57 -7 -14 -25 -51 -40 -83 -15 -32 -41 -68 -60 -83 -18 -13 -36 -36 -39 -49 -3 -13 -20 -34 -37 -46 l-31 -22 6 39 c14 79 -39 154 -108 154 -50 0 -106 -32 -106 -60 0 -29 23 -35 68 -18 69 27 91 2 77 -87 -6 -42 -10 -47 -55 -70 -27 -13 -67 -27 -89 -31 l-41 -7 0 198 0 198 29 51 c37 64 98 136 116 136 7 0 28 -17 45 -37z m-649 -47 c25 -32 57 -39 71 -16 10 15 16 17 32 8 29 -15 29 -14 17 -36 -8 -15 -6 -24 13 -41 12 -12 33 -20 45 -19 33 4 52 -27 27 -45 -15 -11 -17 -19 -9 -43 6 -18 18 -30 31 -32 29 -4 31 -47 2 -55 -11 -3 -25 -17 -31 -31 -10 -22 -9 -29 5 -45 14 -16 15 -24 6 -40 -8 -17 -15 -19 -29 -12 -25 14 -66 -28 -56 -58 9 -29 -30 -49 -54 -27 -23 21 -70 6 -78 -24 -7 -28 -53 -28 -53 0 0 30 -47 46 -71 24 -24 -22 -63 -2 -54 27 10 30 -31 72 -56 58 -26 -14 -47 25 -26 49 19 23 7 64 -21 77 -28 12 -30 51 -2 58 28 7 42 47 23 69 -22 25 -8 61 21 54 29 -7 72 35 62 60 -4 10 0 22 11 30 15 10 21 10 35 -3 22 -20 68 -9 75 17 7 27 41 25 64 -4z"/>
 <path d="M502 445 c-23 -29 -19 -59 11 -80 29 -20 53 -19 77 5 25 25 26 62 2 83 -27 25 -67 21 -90 -8z"/>
 </g>

</svg>