<!DOCTYPE svg PUBLIC "-//W3C//DTD SVG 20010904//EN" "http://www.w3.org/TR/2001/REC-SVG-20010904/DTD/svg10.dtd">
<svg version="1.0" xmlns="http://www.w3.org/2000/svg" width="200px" height="200px" viewBox="0 0 2000 2000" preserveAspectRatio="xMidYMid meet"><g fill="#ffffff" stroke="none">
 <path d="M1516 1590 l-95 -80 -276 0 c-303 0 -320 -3 -368 -59 -33 -39 -47 -89 -47 -163 l0 -58 -78 0 -78 0 -89 75 c-50 41 -98 75 -107 75 -28 0 -48 -40 -48 -96 l0 -51 -42 -7 c-56 -9 -93 -33 -126 -80 l-27 -39 0 -307 0 -307 27 -39 c57 -82 36 -79 538 -79 426 0 446 1 478 20 18 11 44 37 59 58 22 32 27 52 31 123 l5 84 229 0 c170 0 237 3 261 14 42 17 83 66 97 114 13 49 13 545 0 594 -21 73 -89 128 -160 128 l-30 0 0 60 c0 47 -4 64 -20 80 -11 11 -24 20 -29 20 -5 0 -52 -36 -105 -80z m-1044 -757 c23 -20 24 -80 1 -105 -20 -23 -80 -24 -105 -1 -23 20 -24 80 -1 105 20 23 80 24 105 1z m280 0 c23 -20 24 -80 1 -105 -20 -23 -80 -24 -105 -1 -23 20 -24 80 -1 105 20 23 80 24 105 1z m280 0 c23 -20 24 -80 1 -105 -20 -23 -80 -24 -105 -1 -23 20 -24 80 -1 105 20 23 80 24 105 1z"/>
 </g>

<g fill="#03a9f4" stroke="none">
 <path d="M0 1000 l0 -1000 1000 0 1000 0 0 1000 0 1000 -1000 0 -1000 0 0 -1000z m1652 578 l3 -73 53 -6 c61 -8 96 -28 122 -72 19 -30 20 -52 20 -340 0 -340 -1 -345 -62 -389 -32 -22 -41 -23 -283 -28 l-250 -5 -5 -95 c-6 -107 -20 -138 -75 -164 -29 -14 -92 -16 -477 -16 -410 0 -446 1 -477 18 -69 37 -71 50 -71 390 0 257 2 309 16 337 21 46 57 67 123 74 l56 6 5 75 c7 102 19 102 140 0 l95 -80 80 2 80 3 5 97 c6 109 20 140 81 170 30 16 68 18 314 18 l280 1 85 74 c59 52 93 74 112 75 27 0 27 -1 30 -72z"/>
 <path d="M395 860 c-60 -24 -76 -93 -32 -137 51 -52 140 -16 140 57 0 52 -63 99 -108 80z"/>
 <path d="M675 860 c-60 -24 -76 -93 -32 -137 51 -52 140 -16 140 57 0 52 -63 99 -108 80z"/>
 <path d="M955 860 c-60 -24 -76 -93 -32 -137 51 -52 140 -16 140 57 0 52 -63 99 -108 80z"/>
 </g>

</svg>