<?xml version="1.0" standalone="no"?>
<!DOCTYPE svg PUBLIC "-//W3C//DTD SVG 20010904//EN"
 "http://www.w3.org/TR/2001/REC-SVG-20010904/DTD/svg10.dtd">
<svg version="1.0" xmlns="http://www.w3.org/2000/svg"
 width="200.000000pt" height="200.000000pt" viewBox="0 0 512.000000 512.000000"
 preserveAspectRatio="xMidYMid meet">
<metadata>
Created by potrace 1.15, written by Peter Selinger 2001-2017
</metadata>
<g transform="translate(0.000000,512.000000) scale(0.100000,-0.100000)"
fill="#ffffff" stroke="none">
<path d="M2308 5099 c-245 -16 -478 -59 -623 -114 -187 -70 -287 -187 -320
-372 -10 -54 -14 -166 -15 -365 l0 -288 605 0 605 0 0 -75 0 -75 -886 0 c-988
0 -956 2 -1109 -70 -194 -91 -326 -242 -401 -462 -29 -86 -78 -325 -95 -461
-17 -141 -6 -461 20 -607 31 -172 78 -351 115 -440 70 -164 184 -297 309 -358
109 -54 165 -62 444 -62 l252 0 3 342 c4 326 5 347 27 413 69 209 207 372 396
466 153 76 108 72 915 79 799 7 765 4 900 72 89 45 205 161 252 253 76 148 73
110 73 870 l0 680 -25 75 c-65 201 -249 366 -481 434 -203 58 -630 88 -961 65z
m-334 -395 c174 -88 170 -335 -6 -408 -123 -52 -269 25 -298 156 -40 178 146
331 304 252z"/>
<path d="M3920 3516 c0 -213 -4 -315 -14 -369 -56 -289 -254 -512 -541 -608
l-70 -23 -730 -6 -730 -5 -67 -26 c-37 -15 -93 -42 -124 -60 -80 -49 -184
-163 -228 -252 -65 -132 -66 -139 -66 -852 0 -696 0 -697 57 -814 31 -64 135
-177 208 -225 293 -195 805 -289 1230 -227 453 67 762 224 873 443 52 103 62
171 62 456 l0 252 -605 0 -605 0 0 75 0 75 939 0 c588 0 958 4 991 10 215 41
349 200 474 567 83 245 112 438 103 683 -14 336 -106 732 -215 917 -81 140
-209 241 -342 272 -25 6 -169 11 -322 11 l-278 0 0 -294z m-608 -2642 c54 -18
114 -73 136 -123 22 -52 19 -138 -6 -186 -109 -212 -415 -138 -417 100 0 97
58 177 154 211 48 17 78 17 133 -2z"/>
</g>
</svg>
